<?xml version="1.0" encoding="UTF-8"?> <svg xmlns="http://www.w3.org/2000/svg" xmlns:xlink="http://www.w3.org/1999/xlink" version="1.1" id="Livello_1" x="0px" y="0px" height="100" width="266" viewBox="0 0 266 100" style="enable-background:new 0 0 266 100;" xml:space="preserve"> <style type="text/css"> .st0{fill:#143D69;} .st1{fill:#575756;} </style> <g> <g> <path class="st0" d="M60.2,79.83c-1.61,1.42-3.26,2.78-4.97,4.07c-1.84,1.39-3.74,2.71-5.69,3.95c-1.95-1.24-3.85-2.56-5.69-3.95 c-1.71-1.29-3.35-2.66-4.95-4.07c-0.39-0.34-0.75-0.7-1.13-1.05c-0.91-0.83-1.8-1.68-2.67-2.55l-4.84,9.87 c3.21,2.98,6.62,5.75,10.22,8.26c2.09,1.46,4.23,2.84,6.44,4.12l2.62,1.52l2.62-1.52c2.21-1.28,4.35-2.67,6.44-4.12 c4.48-3.12,8.67-6.62,12.54-10.45c0.28-0.28,0.56-0.56,0.84-0.85l0.42,0.85l5.12,10.45h11.62l-7.12-14.53H60.2z"></path> <path class="st1" d="M46.88,18.93L9.94,94.36l11.62,0l27.18-55.48c0.32-0.66,1.27-0.66,1.59,0l10.33,21.09c0,0,2.05,0,2.05,0 c0,0,9.67,0,9.67,0L52.19,18.93C51.11,16.72,47.97,16.73,46.88,18.93z"></path> <g> <path class="st0" d="M10.5,20.11c11.06-5.83,23.34-9.11,35.86-9.59c1.06-0.04,2.11-0.07,3.17-0.07s2.12,0.03,3.17,0.07 C65.22,11,77.5,14.28,88.57,20.11c-0.13,3.37-0.47,6.72-1,10.03c2.78-2.68,6.55-4.34,10.71-4.34h0.35 c0.28-2.9,0.43-5.81,0.43-8.73l0.01-3.03l-2.63-1.51C82.2,4.33,65.98,0,49.53,0S16.87,4.33,2.63,12.52L0,14.03l0.01,3.03 c0.04,16.45,4.41,32.69,12.63,46.97c1.32,2.29,2.74,4.51,4.24,6.66l0.14-0.28l4.1-8.37l1.13-2.3c-0.19-0.32-0.39-0.63-0.57-0.95 C14.87,47,11.03,33.68,10.5,20.11z"></path> <path class="st0" d="M82.8,67.98v-20.4c-1.52,3.86-3.32,7.62-5.4,11.23c-0.18,0.32-0.38,0.63-0.57,0.95 c-0.84,1.41-1.71,2.79-2.62,4.14c-0.06,0.09-0.12,0.17-0.17,0.26H48.6H41L35.88,74.6h14.55h28.91c0.02-0.03,0.05-0.06,0.07-0.09 c1.21-1.57,2.37-3.19,3.48-4.83C82.83,69.12,82.8,68.55,82.8,67.98z"></path> </g> </g> <g> <g> <path class="st1" d="M136.71,79.83H98.27c-6.53,0-11.83-5.31-11.83-11.85V41.31c0-6.55,5.3-11.85,11.83-11.85h26.61 c6.53,0,11.83,5.31,11.83,11.85v18.56H96.88v6.54c0,1.64,1.32,2.96,2.96,2.96h36.88V79.83z M96.88,49.42h29.41v-6.54 c0-1.64-1.32-2.96-2.96-2.96H99.83c-1.63,0-2.96,1.33-2.96,2.96V49.42z"></path> <path class="st1" d="M182.62,79.83h-26.61c-6.53,0-11.83-5.31-11.83-11.85V41.31c0-6.55,5.3-11.85,11.83-11.85h38.44v10.45 h-36.88c-1.63,0-2.96,1.33-2.96,2.96v23.54c0,1.64,1.32,2.96,2.96,2.96h23.49c1.63,0,2.96-1.33,2.96-2.96v-6.54h-19.2V49.42 h29.63v18.56C194.45,74.52,189.16,79.83,182.62,79.83z"></path> <rect x="201.34" y="29.46" class="st1" width="10.43" height="50.37"></rect> <rect x="201.34" y="14.73" class="st1" width="10.43" height="10.45"></rect> <path class="st1" d="M254.17,79.83h-34.7V69.38h33.14c1.63,0,2.96-1.33,2.96-2.96v-3.58c0-1.64-1.32-2.96-2.96-2.96h-21.34 c-6.53,0-11.83-5.31-11.83-11.85v-6.71c0-6.55,5.3-11.85,11.83-11.85h19.27v10.45h-17.71c-1.63,0-2.96,1.33-2.96,2.96v3.58 c0,1.64,1.32,2.96,2.96,2.96h21.34c6.53,0,11.83,5.31,11.83,11.85v6.71C266,74.52,260.7,79.83,254.17,79.83z"></path> </g> </g> <g> <path class="st1" d="M230.63,88.8c0,0.9-0.28,1.08-1.07,1.08h-2.39c-0.83,0-1.08-0.19-1.08-1.02v-1.87c0-0.77,0.23-1.02,1.08-1.02 h1.59v-1.22h-1.65c-1.87,0-2.42,0.58-2.42,2.18v1.99c0,1.6,0.55,2.18,2.42,2.18h2.5c1.89,0,2.44-0.58,2.44-2.18v-1.58h-1.41V88.8z "></path> <path class="st1" d="M237.96,88.94c1.73,0,2.52-0.38,2.52-1.85v-0.44c0-1.53-0.73-1.91-2.5-1.91h-4.96v6.35h1.4v-2.31l3.71,2.31 h2.44l-3.72-2.15H237.96z M234.42,85.93h3.47c0.93,0,1.18,0.11,1.18,0.79v0.35c0,0.69-0.27,0.8-1.18,0.8h-3.47V85.93z"></path> <path class="st1" d="M246.14,84.74h-2.41c-1.87,0-2.42,0.58-2.42,2.18v1.99c0,1.6,0.55,2.18,2.42,2.18h2.41 c1.88,0,2.43-0.58,2.43-2.18v-1.99C248.56,85.31,248.01,84.74,246.14,84.74z M247.15,88.85c0,0.83-0.24,1.02-1.07,1.02h-2.29 c-0.89,0-1.08-0.2-1.08-1.02v-1.87c0-0.79,0.19-1.02,1.08-1.02h2.29c0.83,0,1.07,0.23,1.07,1.02V88.85z"></path> <path class="st1" d="M255.31,88.85c0,0.79-0.29,1.02-1.13,1.02h-2.13c-0.85,0-1.13-0.23-1.13-1.02v-4.13h-1.42v4.17 c0,1.6,0.55,2.18,2.42,2.18h2.38c1.88,0,2.43-0.58,2.43-2.18v-4.17h-1.4V88.85z"></path> <path class="st1" d="M262.85,84.74h-5.08v6.35h1.41v-1.82h3.66c1.85,0,2.38-0.42,2.38-1.94v-0.55 C265.23,85.29,264.66,84.74,262.85,84.74z M263.82,87.28c0,0.67-0.24,0.85-0.99,0.85h-3.64v-2.17h3.63c0.76,0,1,0.2,1,0.88V87.28z "></path> <rect x="91.82" y="87.98" class="st1" width="127.62" height="0.26"></rect> </g> </g> </svg> 