<svg width="1044" height="490" viewBox="0 0 1044 490" fill="none" xmlns="http://www.w3.org/2000/svg">
<path d="M113 158C156.63 158 192 122.63 192 79C192 35.3695 156.63 0 113 0C69.3695 0 34 35.3695 34 79C34 122.63 69.3695 158 113 158Z" fill="url(#paint0_linear_17332_2282)"/>
<path d="M115.5 154C157.75 154 192 119.75 192 77.5C192 35.2502 157.75 1 115.5 1C73.2502 1 39 35.2502 39 77.5C39 119.75 73.2502 154 115.5 154Z" fill="url(#paint1_radial_17332_2282)"/>
<path d="M0 115L108 106V432L0 457V115Z" fill="url(#paint2_linear_17332_2282)"/>
<path opacity="0.85" d="M8 115H0V457L8 455V115Z" fill="url(#paint3_linear_17332_2282)"/>
<mask id="mask0_17332_2282" style="mask-type:luminance" maskUnits="userSpaceOnUse" x="0" y="106" width="108" height="351">
<path d="M0 115L108 106V432L0 457V115Z" fill="white"/>
</mask>
<g mask="url(#mask0_17332_2282)">
<path opacity="0.28" d="M8 127C70.6667 167 105 227 111 307V355C76.3333 393.667 39.3333 419.333 0 432L8 127Z" fill="#5FD03A"/>
</g>
<mask id="mask1_17332_2282" style="mask-type:luminance" maskUnits="userSpaceOnUse" x="0" y="106" width="108" height="351">
<path d="M0 115L108 106V432L0 457V115Z" fill="white"/>
</mask>
<g mask="url(#mask1_17332_2282)">
<path opacity="0.45" d="M8 287C48.3531 254.836 81.6317 214.786 108 167V433L8 457V287Z" fill="#289F00"/>
</g>
<path d="M177.7 415L219.7 205H268.6L226.6 415H177.7ZM276.138 415L318.138 205H367.038L332.838 375.4H438.138L430.038 415H276.138ZM481.063 415L514.963 244.6H447.763L455.863 205H638.863L630.763 244.6H563.863L529.663 415H481.063ZM692.913 289.6H794.013L786.513 327.4H685.413L692.913 289.6ZM679.113 376H793.713L785.613 415H623.013L665.013 205H823.713L815.613 244H705.513L679.113 376ZM934.682 418.6C913.282 418.6 894.782 414.8 879.182 407.2C863.782 399.4 851.882 388.7 843.482 375.1C835.082 361.3 830.882 345.4 830.882 327.4C830.882 309.6 833.982 293 840.182 277.6C846.582 262.2 855.482 248.9 866.882 237.7C878.482 226.3 892.182 217.4 907.982 211C923.982 204.6 941.782 201.4 961.382 201.4C980.182 201.4 996.782 204.6 1011.18 211C1025.58 217.4 1036.48 226.6 1043.88 238.6L1008.78 267.4C1003.38 259.4 996.482 253.3 988.082 249.1C979.682 244.9 969.682 242.8 958.082 242.8C946.282 242.8 935.582 244.9 925.982 249.1C916.382 253.1 908.082 258.9 901.082 266.5C894.282 273.9 889.082 282.6 885.482 292.6C881.882 302.6 880.082 313.2 880.082 324.4C880.082 335 882.382 344.3 886.982 352.3C891.582 360.1 898.282 366.2 907.082 370.6C915.882 375 926.482 377.2 938.882 377.2C949.682 377.2 959.782 375.3 969.182 371.5C978.582 367.5 987.082 361.3 994.682 352.9L1023.48 382.3C1012.48 395.1 999.382 404.4 984.182 410.2C969.182 415.8 952.682 418.6 934.682 418.6Z" fill="url(#paint4_linear_17332_2282)"/>
<defs>
<linearGradient id="paint0_linear_17332_2282" x1="65.6" y1="23.7" x2="168.3" y2="134.3" gradientUnits="userSpaceOnUse">
<stop stop-color="#F0F0F0"/>
<stop offset="0.55" stop-color="#D8DDDE"/>
<stop offset="1" stop-color="#7E9A9D"/>
</linearGradient>
<radialGradient id="paint1_radial_17332_2282" cx="0" cy="0" r="1" gradientUnits="userSpaceOnUse" gradientTransform="translate(153.75 46.9) scale(107.1)">
<stop stop-color="#C8FF7A" stop-opacity="0.9"/>
<stop offset="0.4" stop-color="#91E943" stop-opacity="0.55"/>
<stop offset="1" stop-color="#62CD2C" stop-opacity="0"/>
</radialGradient>
<linearGradient id="paint2_linear_17332_2282" x1="0" y1="106" x2="0" y2="457" gradientUnits="userSpaceOnUse">
<stop stop-color="#9BE12E"/>
<stop offset="0.45" stop-color="#2BB532"/>
<stop offset="1" stop-color="#006E1F"/>
</linearGradient>
<linearGradient id="paint3_linear_17332_2282" x1="4" y1="115" x2="4" y2="457" gradientUnits="userSpaceOnUse">
<stop stop-color="#B8F03E"/>
<stop offset="1" stop-color="#269C18"/>
</linearGradient>
<linearGradient id="paint4_linear_17332_2282" x1="602.5" y1="124" x2="602.5" y2="490" gradientUnits="userSpaceOnUse">
<stop stop-color="#86D92F"/>
<stop offset="1" stop-color="#1A9115"/>
</linearGradient>
</defs>
</svg>
