<svg xmlns="http://www.w3.org/2000/svg" viewBox="0 0 32 32">
  <defs>
    <linearGradient id="g" x1="0%" y1="0%" x2="100%" y2="100%">
      <stop offset="0%" stop-color="#892D9C"/>
      <stop offset="100%" stop-color="#9F1AB1"/>
    </linearGradient>
  </defs>
  <rect width="32" height="32" rx="8" fill="url(#g)"/>
  <path d="M10 11.5c0-1.4 1.2-2.5 3-2.5h6c1.8 0 3 1.1 3 2.5 0 1.3-1 2.3-2.6 2.5-2.4.4-4.4.4-6.8 0C11 13.8 10 12.8 10 11.5zm0 9c0-1.3 1-2.3 2.6-2.5 2.4-.4 4.4-.4 6.8 0 1.6.2 2.6 1.2 2.6 2.5 0 1.4-1.2 2.5-3 2.5h-6c-1.8 0-3-1.1-3-2.5z" fill="white"/>
</svg>
