<svg width="856" height="375" viewBox="0 0 856 375" fill="none" xmlns="http://www.w3.org/2000/svg">
<path d="M88.17 187.46C69.52 187.46 53.96 201.72 52.35 220.3L49.05 258.32H88.53L94.69 187.45H88.18L88.17 187.46Z" fill="#221F20"/>
<path d="M240.09 116.6C218.91 116.6 202.32 134.82 204.29 155.91L213.88 258.33H253.36L240.09 116.6Z" fill="#221F20"/>
<path d="M171.79 147.63C146.97 147.63 124.74 162.97 115.93 186.17L88.53 258.33H128.01L151.21 197.74L174.41 258.33H213.89L171.8 147.63H171.79Z" fill="#221F20"/>
<path d="M452.63 229.56C438.91 228.21 427.89 217.73 425.58 204.47H497.22V199.32C497.22 176.86 478.74 158.59 456.03 158.59C433.32 158.59 414.83 176.86 414.83 199.32C414.83 212.45 421.15 224.14 430.93 231.6C431.06 231.7 431.18 231.8 431.31 231.89C431.41 231.97 431.52 232.04 431.62 232.11C438.22 237.01 445.92 239.6 453.7 239.98C454.47 240.02 455.24 240.05 456.02 240.05V240.02C467.61 239.93 479.15 234.95 487.26 225.37L485.96 224.27C482.55 221.38 477.6 221.16 473.96 223.78C469.25 227.17 462.12 230.49 452.62 229.55L452.63 229.56ZM425.58 194.16C428.07 179.83 440.78 168.89 456.02 168.89C471.26 168.89 483.97 179.83 486.46 194.16H425.58Z" fill="#221F20"/>
<path d="M668.33 229.56C654.61 228.21 643.59 217.73 641.28 204.47H712.92V199.32C712.92 176.86 694.44 158.59 671.73 158.59C649.02 158.59 630.53 176.86 630.53 199.32C630.53 212.45 636.85 224.14 646.63 231.6C646.76 231.7 646.88 231.8 647.01 231.89C647.11 231.97 647.22 232.04 647.32 232.11C653.92 237.01 661.62 239.6 669.4 239.98C670.17 240.02 670.94 240.05 671.72 240.05V240.02C683.31 239.93 694.85 234.95 702.96 225.37L701.66 224.27C698.25 221.38 693.3 221.16 689.66 223.78C684.95 227.17 677.82 230.49 668.32 229.55L668.33 229.56ZM641.28 194.16C643.77 179.83 656.48 168.89 671.72 168.89C686.96 168.89 699.67 179.83 702.16 194.16H641.28Z" fill="#221F20"/>
<path d="M401.02 166.52L377.78 221.21L352.58 158.4C347.17 158.4 342.29 161.68 340.25 166.69L318.07 221.16L291.91 158.17H291.85C286.57 158.17 282.98 163.54 285.01 168.42L314.76 240.06H321.51L348.07 174.84L374.23 240.06H380.97L415.77 158.17H413.65C408.15 158.17 403.17 161.46 401.02 166.52Z" fill="#221F20"/>
<path d="M616.72 166.52L593.48 221.21L568.28 158.4C562.87 158.4 557.99 161.68 555.95 166.69L533.77 221.16L507.61 158.17H507.55C502.27 158.17 498.68 163.54 500.71 168.42L530.46 240.06H537.21L563.77 174.84L589.93 240.06H596.67L631.47 158.17H629.35C623.85 158.17 618.87 161.46 616.72 166.52Z" fill="#221F20"/>
<path d="M766.43 158.56C753.94 158.56 742.76 164.1 735.2 172.8V134.87C729.51 134.87 724.89 139.49 724.89 145.18V239.8H735.2V225.81C742.76 234.51 753.95 240.05 766.43 240.05C789.15 240.05 807.64 221.77 807.64 199.3C807.64 176.83 789.15 158.55 766.43 158.55V158.56ZM766.43 229.75C749.39 229.75 735.53 216.09 735.53 199.31C735.53 182.53 749.39 168.87 766.43 168.87C783.47 168.87 797.33 182.52 797.33 199.31C797.33 216.1 783.47 229.75 766.43 229.75Z" fill="#221F20"/>
</svg>
