<svg width="82" height="18" viewBox="0 0 82 18" fill="none" xmlns="http://www.w3.org/2000/svg">
<path d="M34.9982 0.449338C35.3138 0.694668 35.5774 0.999569 35.7738 1.34648L45.515 17.4201C45.6057 17.5697 45.4979 17.761 45.3229 17.761H40.6788C40.5211 17.761 40.3749 17.6783 40.2937 17.543L38.2376 14.1177L30.8084 14.1022C30.6354 14.1019 30.5277 13.9142 30.6147 13.7647L32.2015 11.0381C32.2417 10.969 32.3156 10.9264 32.3956 10.9264H36.34L33.6147 6.37887L27.5495 16.5956C27.4762 16.7191 27.3074 16.743 27.2027 16.6448L24.2727 13.8958C24.1954 13.8232 24.1793 13.7066 24.2341 13.6159L31.651 1.33524C31.8489 0.987074 32.1167 0.683113 32.4381 0.442324C32.8097 0.174635 33.259 0.0344074 33.7181 0.042846C34.1785 0.0328797 34.6291 0.175951 34.9982 0.449338Z" fill="white"/>
<path d="M55.2626 10.5832V0.354842C55.2626 0.230808 55.3632 0.130258 55.4872 0.130258H59.3502C59.4742 0.130258 59.5747 0.230807 59.5747 0.354841V15.4792C59.5747 16.204 59.3766 16.7975 58.9858 17.2409C58.7845 17.4708 58.5351 17.6543 58.2549 17.7781C57.9747 17.9018 57.6704 17.9631 57.3638 17.9573C56.684 17.9573 56.0595 17.6781 55.5048 17.1283L45.6924 7.32788V14.7799C45.6924 15.0071 45.3939 15.0907 45.2759 14.8966L41.4459 8.594C41.4031 8.52369 41.3805 8.44301 41.3805 8.36074V2.53935C41.3549 1.90661 41.562 1.28625 41.9631 0.793988C42.1696 0.557065 42.4265 0.368661 42.7153 0.242393C43.0042 0.116126 43.3176 0.0551488 43.633 0.0638686C43.9587 0.0638008 44.2805 0.134391 44.5759 0.270703C44.8863 0.420983 45.1677 0.624465 45.407 0.871792L55.2626 10.5832Z" fill="white"/>
<path d="M80.8698 5.39178C80.4732 4.3663 79.864 3.43503 79.0817 2.65832C78.2995 1.8816 77.3616 1.27677 76.329 0.883008C75.2195 0.4577 74.0389 0.245207 72.8499 0.256798H68.9655C67.8067 0.247048 66.6563 0.455266 65.5753 0.870453C64.5548 1.26694 63.625 1.86322 62.8412 2.62381C62.0508 3.4001 61.4326 4.33185 61.0262 5.35931C60.5875 6.4701 60.368 7.65422 60.3793 8.84728C60.3705 10.0456 60.5868 11.235 61.0176 12.3544C61.4232 13.4078 62.0348 14.371 62.8173 15.1887C63.5944 15.9902 64.5231 16.6317 65.5502 17.0761C66.629 17.5419 67.7943 17.7774 68.9706 17.7674H72.8525C74.5859 17.7944 76.2855 17.2894 77.7188 16.3212C79.1522 15.353 80.2497 13.969 80.8612 12.358C81.2922 11.2388 81.5087 10.0494 81.4994 8.85104C81.5125 7.66873 81.2989 6.49472 80.8698 5.39178ZM72.8524 13.3486H68.9655C68.3958 13.3542 67.831 13.2431 67.3065 13.0223C66.8163 12.8157 66.374 12.5119 66.0062 12.1294C65.6304 11.7313 65.338 11.263 65.1462 10.7517C64.9308 10.1842 64.8231 9.58207 64.8283 8.97566C64.8201 8.37088 64.9271 7.77002 65.1436 7.20468C65.3374 6.70497 65.6288 6.24824 66.0011 5.86074C66.3693 5.48403 66.8107 5.18571 67.2988 4.98397C67.8277 4.7716 68.3943 4.66684 68.9648 4.67585H72.8518C73.4354 4.66937 74.0142 4.77822 74.5549 4.99605C75.0552 5.19436 75.508 5.49469 75.884 5.87763C76.2601 6.26057 76.551 6.7176 76.7381 7.2192C76.9541 7.78149 77.062 8.37908 77.0559 8.98088C77.0612 9.5873 76.9534 10.1895 76.7381 10.7569C76.5451 11.2669 76.2503 11.733 75.8716 12.1271C75.4952 12.5112 75.0449 12.8164 74.5473 13.0243C74.0105 13.2458 73.4337 13.356 72.8524 13.3486Z" fill="white"/>
<path d="M19.3018 0.260498H26.2655C26.4689 0.260498 26.5675 0.509421 26.4193 0.64875L18.4503 8.1367C18.3638 8.21793 18.2291 8.21792 18.1427 8.13667L14.6175 4.82293C14.5231 4.73424 14.5231 4.58433 14.6175 4.49564L18.9942 0.382357C19.0775 0.304077 19.1875 0.260498 19.3018 0.260498Z" fill="url(#paint0_linear_254_35)"/>
<path d="M19.3018 17.761H26.2655C26.4689 17.761 26.5675 17.5121 26.4193 17.3727L18.4503 9.88479C18.3638 9.80355 18.2291 9.80357 18.1427 9.88482L14.6175 13.1985C14.5231 13.2872 14.5231 13.4372 14.6175 13.5258L18.9942 17.6391C19.0775 17.7174 19.1875 17.761 19.3018 17.761Z" fill="url(#paint1_linear_254_35)"/>
<path d="M8.33819 0.382383C8.2549 0.304125 8.14491 0.260559 8.03062 0.260559H1.06691C0.86345 0.260559 0.764846 0.509462 0.913108 0.648798L9.81137 9.01138L0.913177 17.3727C0.7649 17.5121 0.8635 17.761 1.06697 17.761H8.03064C8.14492 17.761 8.2549 17.7174 8.33818 17.6392L17.3478 9.17506C17.4423 9.08636 17.4423 8.9364 17.3479 8.8477L8.33819 0.382383Z" fill="white"/>
<defs>
<linearGradient id="paint0_linear_254_35" x1="26.8325" y1="0.260499" x2="18.6248" y2="8.28123" gradientUnits="userSpaceOnUse">
<stop stop-color="#50A5FF"/>
<stop offset="1" stop-color="#0B5AFF"/>
</linearGradient>
<linearGradient id="paint1_linear_254_35" x1="26.8325" y1="17.761" x2="18.6248" y2="9.74025" gradientUnits="userSpaceOnUse">
<stop stop-color="#50A5FF"/>
<stop offset="1" stop-color="#0B5AFF"/>
</linearGradient>
</defs>
</svg>
