<svg width="16204" height="6599" viewBox="0 0 16204 6599" fill="none" xmlns="http://www.w3.org/2000/svg">
<path d="M2071.53 2515.9C1904.8 2419.64 1706.3 2394.19 1519.69 2445.14C1333.09 2496.09 1173.66 2619.27 1076.48 2787.58L99.3989 4479.94C21.184 4615.37 -12.061 4772.03 4.52496 4927.02C21.1109 5082.01 86.6579 5227.2 191.581 5341.35C296.505 5455.51 435.3 5532.64 587.674 5561.47C740.047 5590.3 898.004 5569.32 1038.45 5501.6L3168.05 4474.65C3287.81 4416.93 3389.88 4327.6 3463.29 4216.28C3536.69 4104.96 3578.64 3975.88 3584.6 3842.94C3590.57 3710 3560.34 3578.24 3497.16 3461.86C3433.98 3345.47 3340.25 3248.88 3226.07 3182.47L2071.53 2515.9Z" fill="#892D9C"/>
<path d="M1686.41 3988.1C1853.13 4084.36 2051.64 4109.81 2238.25 4058.86C2424.85 4007.91 2584.28 3884.73 2681.46 3716.42L3658.54 2024.06C3736.76 1888.63 3770 1731.97 3753.41 1576.98C3736.83 1421.99 3671.28 1276.8 3566.36 1162.64C3461.44 1048.49 3322.64 971.359 3170.27 942.527C3017.89 913.695 2859.94 934.676 2719.49 1002.4L589.89 2029.35C469.955 2087.16 367.755 2176.67 294.332 2288.21C220.908 2399.75 179.052 2529.08 173.287 2662.23C167.521 2795.38 198.066 2927.28 261.619 3043.68C325.172 3160.08 419.319 3256.56 533.886 3322.69L1686.41 3988.1Z" fill="url(#paint0_linear_275_2)"/>
<path d="M2368.58 4391.42L532.732 3331.49C399.941 3254.83 311.493 3113.92 286.845 2939.76C262.197 2765.61 303.368 2572.47 401.301 2402.85C499.235 2233.22 645.907 2101 809.054 2035.27C972.2 1969.54 1138.46 1975.68 1271.25 2052.35L3107.1 3112.28C3239.89 3188.95 3328.34 3329.86 3352.99 3504.01C3377.63 3678.17 3336.46 3871.3 3238.53 4040.92C3140.6 4210.55 2993.92 4342.77 2830.78 4408.5C2667.63 4474.23 2501.38 4468.09 2368.58 4391.42Z" fill="url(#paint1_linear_275_2)"/>
<path d="M5913 3730C5769 3730 5641 3714 5529 3682C5417 3652.67 5323.67 3610 5249 3554C5174.33 3495.33 5117 3426 5077 3346C5037 3266 5015.67 3178 5013 3082L5321 3002C5315.67 3090 5337 3167.33 5385 3234C5435.67 3298 5506.33 3347.33 5597 3382C5690.33 3416.67 5802.33 3434 5933 3434C6090.33 3434 6211.67 3407.33 6297 3354C6385 3300.67 6429 3227.33 6429 3134C6429 3059.33 6405 3002 6357 2962C6309 2919.33 6242.33 2886 6157 2862C6074.33 2835.33 5975.67 2811.33 5861 2790C5765 2768.67 5669 2744.67 5573 2718C5477 2691.33 5389 2656.67 5309 2614C5231.67 2568.67 5169 2510 5121 2438C5073 2366 5049 2276.67 5049 2170C5049 2044.67 5082.33 1936.67 5149 1846C5215.67 1755.33 5310.33 1684.67 5433 1634C5555.67 1583.33 5702.33 1558 5873 1558C6043.67 1558 6189 1584.67 6309 1638C6429 1688.67 6523.67 1760.67 6593 1854C6662.33 1947.33 6701 2056.67 6709 2182L6393 2262C6390.33 2174 6366.33 2099.33 6321 2038C6278.33 1976.67 6217 1931.33 6137 1902C6057 1870 5963.67 1854 5857 1854C5715.67 1854 5603.67 1880.67 5521 1934C5438.33 1987.33 5397 2060.67 5397 2154C5397 2223.33 5421 2279.33 5469 2322C5519.67 2364.67 5587.67 2398 5673 2422C5758.33 2446 5853 2470 5957 2494C6063.67 2515.33 6165 2539.33 6261 2566C6359.67 2592.67 6447.67 2627.33 6525 2670C6602.33 2712.67 6663.67 2770 6709 2842C6754.33 2911.33 6777 3000.67 6777 3110C6777 3246 6741 3360.67 6669 3454C6597 3544.67 6495.67 3614 6365 3662C6237 3707.33 6086.33 3730 5913 3730ZM8165.81 3730C7968.48 3730 7793.81 3687.33 7641.81 3602C7492.48 3514 7375.15 3388.67 7289.81 3226C7207.15 3063.33 7165.81 2866 7165.81 2634C7165.81 2394 7209.81 2195.33 7297.81 2038C7388.48 1878 7508.48 1758 7657.81 1678C7807.15 1598 7973.81 1558 8157.81 1558C8349.81 1558 8520.48 1600.67 8669.81 1686C8821.81 1768.67 8941.81 1891.33 9029.81 2054C9117.81 2214 9161.81 2412.67 9161.81 2650C9161.81 2887.33 9117.81 3086 9029.81 3246C8944.48 3406 8825.81 3527.33 8673.81 3610C8524.48 3690 8355.15 3730 8165.81 3730ZM8181.81 3430C8309.81 3430 8419.15 3399.33 8509.81 3338C8603.15 3274 8673.81 3184.67 8721.81 3070C8772.48 2955.33 8797.81 2819.33 8797.81 2662C8797.81 2499.33 8771.15 2359.33 8717.81 2242C8667.15 2122 8593.81 2030 8497.81 1966C8401.81 1899.33 8285.81 1866 8149.81 1866C8027.15 1866 7919.15 1895.33 7825.81 1954C7732.48 2012.67 7660.48 2099.33 7609.81 2214C7559.15 2326 7533.81 2463.33 7533.81 2626C7533.81 2876.67 7591.15 3074 7705.81 3218C7823.15 3359.33 7981.81 3430 8181.81 3430ZM9680.16 3678V2558V1610H10008.2L9976.16 2330H10044.2C10068.2 2172.67 10105.5 2036.67 10156.2 1922C10206.8 1807.33 10273.5 1718 10356.2 1654C10441.5 1590 10546.8 1558 10672.2 1558C10698.8 1558 10729.5 1560.67 10764.2 1566C10798.8 1568.67 10838.8 1578 10884.2 1594L10864.2 1974C10824.2 1958 10784.2 1947.33 10744.2 1942C10704.2 1934 10665.5 1930 10628.2 1930C10524.2 1930 10433.5 1963.33 10356.2 2030C10281.5 2096.67 10218.8 2187.33 10168.2 2302C10117.5 2414 10076.2 2540.67 10044.2 2682V3678H9680.16ZM11722.6 3730C11610.6 3730 11509.2 3708.67 11418.6 3666C11327.9 3620.67 11255.9 3555.33 11202.6 3470C11149.2 3382 11122.6 3271.33 11122.6 3138C11122.6 3039.33 11139.9 2952.67 11174.6 2878C11211.9 2803.33 11267.9 2739.33 11342.6 2686C11419.9 2632.67 11518.6 2588.67 11638.6 2554C11758.6 2519.33 11905.2 2490 12078.6 2466C12177.2 2452.67 12257.2 2439.33 12318.6 2426C12382.6 2412.67 12429.2 2391.33 12458.6 2362C12487.9 2330 12502.6 2283.33 12502.6 2222C12502.6 2120.67 12467.9 2035.33 12398.6 1966C12329.2 1896.67 12219.9 1862 12070.6 1862C11993.2 1862 11914.6 1875.33 11834.6 1902C11754.6 1928.67 11683.9 1974 11622.6 2038C11563.9 2099.33 11526.6 2186 11510.6 2298L11174.6 2186C11195.9 2090 11230.6 2003.33 11278.6 1926C11329.2 1848.67 11393.2 1783.33 11470.6 1730C11547.9 1674 11637.2 1631.33 11738.6 1602C11842.6 1572.67 11957.2 1558 12082.6 1558C12255.9 1558 12399.9 1587.33 12514.6 1646C12631.9 1704.67 12718.6 1795.33 12774.6 1918C12833.2 2038 12862.6 2192.67 12862.6 2382V2842C12862.6 2924.67 12863.9 3015.33 12866.6 3114C12871.9 3210 12878.6 3307.33 12886.6 3406C12894.6 3502 12902.6 3592.67 12910.6 3678H12574.6C12566.6 3592.67 12558.6 3507.33 12550.6 3422C12545.2 3336.67 12541.2 3251.33 12538.6 3166H12486.6C12446.6 3264.67 12393.2 3356.67 12326.6 3442C12259.9 3527.33 12175.9 3596.67 12074.6 3650C11975.9 3703.33 11858.6 3730 11722.6 3730ZM11830.6 3434C11889.2 3434 11947.9 3424.67 12006.6 3406C12067.9 3387.33 12127.9 3356.67 12186.6 3314C12247.9 3271.33 12305.2 3216.67 12358.6 3150C12414.6 3083.33 12463.9 3003.33 12506.6 2910V2510L12610.6 2530C12567.9 2572.67 12510.6 2604.67 12438.6 2626C12369.2 2647.33 12291.9 2664.67 12206.6 2678C12121.2 2691.33 12035.9 2706 11950.6 2722C11865.2 2735.33 11786.6 2756.67 11714.6 2786C11645.2 2812.67 11589.2 2851.33 11546.6 2902C11503.9 2952.67 11482.6 3022 11482.6 3110C11482.6 3216.67 11514.6 3298 11578.6 3354C11642.6 3407.33 11726.6 3434 11830.6 3434ZM13477.1 3678V1610H13841.1V3678H13477.1ZM13661.1 1250C13575.8 1250 13511.8 1232.67 13469.1 1198C13426.5 1163.33 13405.1 1111.33 13405.1 1042C13405.1 972.666 13426.5 920.666 13469.1 886C13511.8 851.333 13574.5 834 13657.1 834C13742.5 834 13806.5 851.333 13849.1 886C13891.8 920.666 13913.1 972.666 13913.1 1042C13913.1 1108.67 13891.8 1160.67 13849.1 1198C13806.5 1232.67 13743.8 1250 13661.1 1250ZM14949.1 3730C14837.1 3730 14735.8 3708.67 14645.1 3666C14554.5 3620.67 14482.5 3555.33 14429.1 3470C14375.8 3382 14349.1 3271.33 14349.1 3138C14349.1 3039.33 14366.5 2952.67 14401.1 2878C14438.5 2803.33 14494.5 2739.33 14569.1 2686C14646.5 2632.67 14745.1 2588.67 14865.1 2554C14985.1 2519.33 15131.8 2490 15305.1 2466C15403.8 2452.67 15483.8 2439.33 15545.1 2426C15609.1 2412.67 15655.8 2391.33 15685.1 2362C15714.5 2330 15729.1 2283.33 15729.1 2222C15729.1 2120.67 15694.5 2035.33 15625.1 1966C15555.8 1896.67 15446.5 1862 15297.1 1862C15219.8 1862 15141.1 1875.33 15061.1 1902C14981.1 1928.67 14910.5 1974 14849.1 2038C14790.5 2099.33 14753.1 2186 14737.1 2298L14401.1 2186C14422.5 2090 14457.1 2003.33 14505.1 1926C14555.8 1848.67 14619.8 1783.33 14697.1 1730C14774.5 1674 14863.8 1631.33 14965.1 1602C15069.1 1572.67 15183.8 1558 15309.1 1558C15482.5 1558 15626.5 1587.33 15741.1 1646C15858.5 1704.67 15945.1 1795.33 16001.1 1918C16059.8 2038 16089.1 2192.67 16089.1 2382V2842C16089.1 2924.67 16090.5 3015.33 16093.1 3114C16098.5 3210 16105.1 3307.33 16113.1 3406C16121.1 3502 16129.1 3592.67 16137.1 3678H15801.1C15793.1 3592.67 15785.1 3507.33 15777.1 3422C15771.8 3336.67 15767.8 3251.33 15765.1 3166H15713.1C15673.1 3264.67 15619.8 3356.67 15553.1 3442C15486.5 3527.33 15402.5 3596.67 15301.1 3650C15202.5 3703.33 15085.1 3730 14949.1 3730ZM15057.1 3434C15115.8 3434 15174.5 3424.67 15233.1 3406C15294.5 3387.33 15354.5 3356.67 15413.1 3314C15474.5 3271.33 15531.8 3216.67 15585.1 3150C15641.1 3083.33 15690.5 3003.33 15733.1 2910V2510L15837.1 2530C15794.5 2572.67 15737.1 2604.67 15665.1 2626C15595.8 2647.33 15518.5 2664.67 15433.1 2678C15347.8 2691.33 15262.5 2706 15177.1 2722C15091.8 2735.33 15013.1 2756.67 14941.1 2786C14871.8 2812.67 14815.8 2851.33 14773.1 2902C14730.5 2952.67 14709.1 3022 14709.1 3110C14709.1 3216.67 14741.1 3298 14805.1 3354C14869.1 3407.33 14953.1 3434 15057.1 3434Z" fill="black"/>
<path d="M5090.83 5366L5421.23 4442H5537.43L5867.83 5366H5783.83L5487.03 4514.8H5473.03L5176.23 5366H5090.83ZM5229.43 5142V5070.6H5737.63V5142H5229.43ZM6052.46 5366V4442H6133.66V5366H6052.46ZM6693.17 5366L7023.57 4442H7139.77L7470.17 5366H7386.17L7089.37 4514.8H7075.37L6778.57 5366H6693.17ZM6831.77 5142V5070.6H7339.97V5142H6831.77ZM7973.46 5382.8C7897.86 5382.8 7830.66 5365.53 7771.86 5331C7713.99 5295.53 7668.73 5242.8 7636.06 5172.8C7603.39 5101.87 7587.06 5012.73 7587.06 4905.4C7587.06 4830.73 7595.46 4764 7612.26 4705.2C7629.99 4646.4 7655.66 4596 7689.26 4554C7723.79 4512 7765.79 4480.27 7815.26 4458.8C7864.73 4436.4 7922.13 4425.2 7987.46 4425.2C8035.06 4425.2 8077.99 4431.73 8116.26 4444.8C8155.46 4456.93 8189.53 4475.6 8218.46 4500.8C8248.33 4525.07 8272.59 4555.4 8291.26 4591.8C8309.93 4627.27 8322.53 4668.33 8329.06 4715L8250.66 4734.6C8245.99 4675.8 8230.13 4629.6 8203.06 4596C8176.93 4561.47 8144.73 4537.2 8106.46 4523.2C8069.13 4509.2 8029.46 4502.2 7987.46 4502.2C7926.79 4502.2 7872.19 4515.73 7823.66 4542.8C7776.06 4568.93 7738.26 4611.87 7710.26 4671.6C7683.19 4730.4 7669.66 4808.33 7669.66 4905.4C7669.66 4981.93 7678.06 5045.87 7694.86 5097.2C7712.59 5148.53 7735.46 5189.13 7763.46 5219C7792.39 5248.87 7825.06 5270.33 7861.46 5283.4C7898.79 5295.53 7936.13 5301.6 7973.46 5301.6C8027.59 5301.6 8074.26 5290.87 8113.46 5269.4C8152.66 5247.93 8184.39 5215.27 8208.66 5171.4C8233.86 5126.6 8250.19 5070.6 8257.66 5003.4H8022.46V4929.2H8337.46V5048.2V5366H8256.26L8296.86 5104.2H8280.06C8268.86 5167.67 8250.19 5219.93 8224.06 5261C8198.86 5302.07 8165.26 5332.87 8123.26 5353.4C8082.19 5373 8032.26 5382.8 7973.46 5382.8ZM8573.56 5366V4442H8653.36V5366H8573.56ZM8590.36 5366V5291.8H9179.76V5366H8590.36ZM8590.36 4927.8V4853.6H9115.36V4927.8H8590.36ZM8590.36 4516.2V4442H9179.76V4516.2H8590.36ZM9366.53 5366V4442H9477.13L10009.1 5262.4H10017.5L10010.5 4442H10087.5V5366H9986.73L9447.73 4535.8H9437.93L9444.93 5366H9366.53ZM10548.3 5366V4442H10628.1V5366H10548.3ZM10261.3 4516.2V4442H10915.1V4516.2H10261.3ZM11368.3 5382.8C11307.6 5382.8 11254.4 5376.27 11208.7 5363.2C11163 5349.2 11125.6 5328.67 11096.7 5301.6C11067.8 5274.53 11046.8 5241.87 11033.7 5203.6C11021.6 5164.4 11018.3 5119.6 11023.9 5069.2L11098.1 5063.6C11091.6 5117.73 11098.1 5163 11117.7 5199.4C11138.2 5234.87 11170 5261.47 11212.9 5279.2C11256.8 5296.93 11309 5305.8 11369.7 5305.8C11428.5 5305.8 11478.4 5298.8 11519.5 5284.8C11560.6 5269.87 11591.4 5248.87 11611.9 5221.8C11633.4 5194.73 11644.1 5163 11644.1 5126.6C11644.1 5086.47 11632 5055.2 11607.7 5032.8C11584.4 5010.4 11553.6 4993.6 11515.3 4982.4C11477 4970.27 11435.5 4959.53 11390.7 4950.2C11348.7 4941.8 11306.7 4932 11264.7 4920.8C11223.6 4909.6 11186.3 4894.67 11152.7 4876C11119.1 4857.33 11092 4833.07 11071.5 4803.2C11051 4772.4 11040.7 4733.2 11040.7 4685.6C11040.7 4631.47 11054.2 4585.27 11081.3 4547C11108.4 4507.8 11145.2 4477.93 11191.9 4457.4C11239.5 4435.93 11293.6 4425.2 11354.3 4425.2C11415 4425.2 11470.5 4435.47 11520.9 4456C11571.3 4475.6 11611.9 4506.4 11642.7 4548.4C11674.4 4589.47 11690.8 4642.2 11691.7 4706.6L11611.9 4720.6C11611.9 4684.2 11605.4 4652 11592.3 4624C11580.2 4596 11562.4 4573.13 11539.1 4555.4C11515.8 4536.73 11488.2 4522.73 11456.5 4513.4C11425.7 4504.07 11391.2 4499.4 11352.9 4499.4C11308.1 4499.4 11268 4506.87 11232.5 4521.8C11198 4536.73 11170.4 4557.73 11149.9 4584.8C11129.4 4611.87 11119.1 4644.07 11119.1 4681.4C11119.1 4725.27 11133.1 4759.33 11161.1 4783.6C11190 4807.87 11226.9 4826.53 11271.7 4839.6C11317.4 4852.67 11365.5 4864.8 11415.9 4876C11456 4884.4 11494.3 4894.2 11530.7 4905.4C11567.1 4916.6 11599.8 4931.53 11628.7 4950.2C11657.6 4967.93 11680.5 4991.27 11697.3 5020.2C11714.1 5049.13 11722.5 5086 11722.5 5130.8C11722.5 5181.2 11709.4 5225.53 11683.3 5263.8C11657.2 5301.13 11618 5330.53 11565.7 5352C11513.4 5372.53 11447.6 5382.8 11368.3 5382.8Z" fill="black"/>
<defs>
<linearGradient id="paint0_linear_275_2" x1="728.036" y1="2852.1" x2="3584.49" y2="4240.14" gradientUnits="userSpaceOnUse">
<stop offset="0.27" stop-color="#B376C0"/>
<stop offset="0.74" stop-color="#CF92DB"/>
</linearGradient>
<linearGradient id="paint1_linear_275_2" x1="1151.14" y1="2031.23" x2="2329.73" y2="3929.34" gradientUnits="userSpaceOnUse">
<stop offset="0.18" stop-color="#B376C0"/>
<stop offset="0.82" stop-color="#892D9C"/>
</linearGradient>
</defs>
</svg>
